<?xml version="1.0" standalone="no"?>
<!DOCTYPE svg PUBLIC "-//W3C//DTD SVG 20010904//EN"
 "http://www.w3.org/TR/2001/REC-SVG-20010904/DTD/svg10.dtd">
<svg version="1.0" xmlns="http://www.w3.org/2000/svg"
 width="50.000000pt" height="50.000000pt" viewBox="0 0 50.000000 50.000000"
 preserveAspectRatio="xMidYMid meet">

<g transform="translate(0.000000,50.000000) scale(0.100000,-0.100000)"
fill="#000000" stroke="none">
<path d="M70 250 l0 -230 180 0 180 0 0 230 0 230 -180 0 -180 0 0 -230z m124
161 c4 -5 2 -21 -3 -34 -8 -21 -6 -28 12 -41 21 -14 20 -15 -28 -15 -45 0 -48
1 -31 14 13 10 17 21 12 40 -4 14 -4 30 -1 35 8 13 32 13 39 1z m176 -21 c0
-5 -22 -10 -50 -10 -27 0 -50 5 -50 10 0 6 23 10 50 10 28 0 50 -4 50 -10z m0
-50 c0 -5 -22 -10 -50 -10 -27 0 -50 5 -50 10 0 6 23 10 50 10 28 0 50 -4 50
-10z m-80 -100 c0 -6 -33 -10 -80 -10 -47 0 -80 4 -80 10 0 6 33 10 80 10 47
0 80 -4 80 -10z m80 0 c0 -5 -11 -10 -25 -10 -14 0 -25 5 -25 10 0 6 11 10 25
10 14 0 25 -4 25 -10z m-110 -60 c0 -6 -28 -10 -65 -10 -37 0 -65 4 -65 10 0
6 28 10 65 10 37 0 65 -4 65 -10z m110 0 c0 -5 -11 -10 -25 -10 -14 0 -25 5
-25 10 0 6 11 10 25 10 14 0 25 -4 25 -10z m-80 -60 c0 -6 -33 -10 -80 -10
-47 0 -80 4 -80 10 0 6 33 10 80 10 47 0 80 -4 80 -10z m80 0 c0 -5 -11 -10
-25 -10 -14 0 -25 5 -25 10 0 6 11 10 25 10 14 0 25 -4 25 -10z"/>
</g>
</svg>
